<?xml version="1.0" standalone="no"?><svg xmlns="http://www.w3.org/2000/svg" viewBox="0 0 1440 320"><path fill="#0b1533" fill-opacity="1" d="M0,96L17.1,96C34.3,96,69,96,103,117.3C137.1,139,171,181,206,208C240,235,274,245,309,240C342.9,235,377,213,411,176C445.7,139,480,85,514,64C548.6,43,583,53,617,69.3C651.4,85,686,107,720,106.7C754.3,107,789,85,823,80C857.1,75,891,85,926,112C960,139,994,181,1029,192C1062.9,203,1097,181,1131,144C1165.7,107,1200,53,1234,48C1268.6,43,1303,85,1337,96C1371.4,107,1406,85,1423,74.7L1440,64L1440,0L1422.9,0C1405.7,0,1371,0,1337,0C1302.9,0,1269,0,1234,0C1200,0,1166,0,1131,0C1097.1,0,1063,0,1029,0C994.3,0,960,0,926,0C891.4,0,857,0,823,0C788.6,0,754,0,720,0C685.7,0,651,0,617,0C582.9,0,549,0,514,0C480,0,446,0,411,0C377.1,0,343,0,309,0C274.3,0,240,0,206,0C171.4,0,137,0,103,0C68.6,0,34,0,17,0L0,0Z"></path></svg>